<?xml version="1.0" encoding="UTF-8"?>
<svg id="Layer_1" xmlns="http://www.w3.org/2000/svg" viewBox="0 0 1080 1080">
  <defs>
    <style>
      .cls-1 {
        fill: #afff7b;
      }

      .cls-2 {
        fill: #f7f7f7;
      }
    </style>
  </defs>
  <rect width="1080" height="1080"/>
  <g>
    <g>
      <g>
        <path class="cls-2" d="M281.46,418.44l-52.43,129.24h26.03c1.85-4.55,4.43-8.18,7.75-10.89,3.32-2.71,7.23-4.77,11.72-6.18,4.49-1.41,9.44-2.34,14.86-2.77,5.41-.43,11.08-.65,16.99-.65h16.43l8.31,20.49h26.03l-52.43-129.24h-23.26ZM306.39,505.03c-7.38,0-14.22.74-20.49,2.22-6.28,1.48-12.19,4.19-17.72,8.12l24.92-61.67,20.68,51.33h-7.39Z"/>
        <path class="cls-2" d="M428.89,509.83c0,3.33-.55,6.16-1.66,8.5-1.11,2.34-2.58,4.31-4.43,5.91-1.85,1.6-4,2.77-6.46,3.51-2.46.74-5.05,1.11-7.75,1.11s-5.29-.37-7.75-1.11c-2.46-.74-4.62-1.91-6.46-3.51-1.85-1.6-3.32-3.57-4.43-5.91-1.11-2.34-1.66-5.17-1.66-8.5v-54.46h-22.15v55.02c0,4.06.77,8.37,2.31,12.92,1.54,4.56,4.03,8.77,7.48,12.65,3.45,3.88,7.85,7.08,13.2,9.6,5.35,2.52,11.84,3.78,19.48,3.78s14.12-1.26,19.48-3.78c5.35-2.52,9.75-5.72,13.2-9.6,3.44-3.88,5.94-8.09,7.48-12.65,1.54-4.55,2.31-8.86,2.31-12.92v-55.02h-22.15v54.46Z"/>
        <path class="cls-2" d="M613.09,509.9c0,3.36-.56,6.22-1.68,8.57-1.12,2.36-2.61,4.35-4.47,5.96-1.86,1.61-4.04,2.79-6.52,3.54-2.49.75-5.09,1.12-7.83,1.12s-5.34-.37-7.82-1.12c-2.49-.75-4.66-1.92-6.52-3.54-1.86-1.61-3.35-3.6-4.47-5.96-1.12-2.36-1.68-5.22-1.68-8.57v-54.96h-22.36v55.52c0,4.1.77,8.45,2.33,13.04,1.55,4.6,4.07,8.85,7.55,12.76,3.48,3.91,7.92,7.14,13.32,9.69,5.4,2.54,11.95,3.82,19.65,3.82s14.25-1.27,19.66-3.82c5.4-2.55,9.84-5.78,13.32-9.69,3.48-3.91,5.99-8.17,7.55-12.76,1.55-4.59,2.33-8.94,2.33-13.04v-55.52h-22.36v54.96Z"/>
        <path class="cls-2" d="M513.26,526.54c-2.52,1.29-5.69,1.94-9.51,1.94-4.56,0-9.14-.92-13.75-2.77-4.62-1.85-8.89-4.62-12.83-8.31l-11.82,17.35c1.48,1.23,3.35,2.68,5.63,4.34,2.28,1.66,4.99,3.2,8.12,4.62,3.14,1.42,6.71,2.62,10.71,3.6,4,.98,8.46,1.48,13.39,1.48,5.29,0,10.12-.62,14.49-1.85,4.37-1.23,8.15-3.07,11.35-5.54,3.2-2.46,5.69-5.51,7.48-9.14,1.78-3.63,2.68-7.78,2.68-12.46,0-5.78-1.23-10.46-3.69-14.03-2.46-3.57-5.57-6.43-9.32-8.58-3.76-2.15-7.79-3.81-12.09-4.99-4.31-1.17-8.34-2.28-12.09-3.32-3.76-1.05-6.86-2.18-9.32-3.42-2.46-1.23-3.69-2.95-3.69-5.17,0-1.85.95-3.32,2.86-4.43,1.91-1.11,4.64-1.66,8.22-1.66,3.81,0,8.03.8,12.65,2.4,4.62,1.6,9.38,4.43,14.31,8.49l11.82-17.17c-1.97-1.72-4.25-3.42-6.83-5.08-2.58-1.66-5.45-3.14-8.59-4.43-3.14-1.29-6.62-2.37-10.43-3.23-3.82-.86-8-1.29-12.55-1.29-10.46,0-18.68,2.34-24.65,7.02-5.97,4.68-8.95,11.26-8.95,19.75,0,5.66,1.23,10.19,3.69,13.57,2.46,3.39,5.57,6.12,9.32,8.22,3.75,2.09,7.78,3.72,12.09,4.89,4.31,1.17,8.34,2.28,12.09,3.32,3.75,1.05,6.86,2.28,9.32,3.69,2.46,1.42,3.69,3.48,3.69,6.18s-1.26,4.71-3.78,6Z"/>
        <path class="cls-2" d="M761.56,475.81c2.46.76,4.62,1.96,6.46,3.59,1.85,1.64,3.32,3.66,4.43,6.05,1.11,2.4,1.66,5.29,1.66,8.69v55.75h22.15v-56.32c0-4.16-.77-8.57-2.31-13.23-1.54-4.66-4.03-8.98-7.48-12.95-3.45-3.97-7.85-7.24-13.2-9.83-5.35-2.58-11.85-3.87-19.48-3.87s-13.88,1.29-18.74,3.87c-4.86,2.58-8.74,5.86-11.63,9.83-.35.48-.69.97-1.02,1.46-.33-.49-.66-.98-1.01-1.46-2.89-3.97-6.77-7.24-11.63-9.83-4.86-2.58-11.11-3.87-18.74-3.87s-14.12,1.29-19.48,3.87c-5.35,2.58-9.76,5.86-13.2,9.83-3.45,3.97-5.94,8.29-7.48,12.95-1.54,4.66-2.31,9.07-2.31,13.23v56.32h22.15v-55.75c0-3.4.55-6.3,1.66-8.69,1.11-2.39,2.59-4.41,4.43-6.05,1.85-1.64,4-2.83,6.46-3.59,2.46-.76,5.05-1.13,7.75-1.13s5.29.38,7.75,1.13c2.46.76,4.62,1.96,6.46,3.59,1.85,1.64,3.32,3.66,4.43,6.05,1.11,2.4,1.66,5.29,1.66,8.69v55.75h22.15v-55.75c0-3.4.55-6.3,1.66-8.69,1.11-2.39,2.58-4.41,4.43-6.05,1.85-1.64,4-2.83,6.46-3.59,2.46-.76,5.05-1.13,7.75-1.13s5.29.38,7.75,1.13Z"/>
      </g>
      <g>
        <path class="cls-2" d="M441.25,576.64c-3.45-3.88-7.85-7.08-13.2-9.6-5.35-2.52-11.85-3.79-19.48-3.79s-14.12,1.26-19.48,3.79c-5.35,2.52-9.76,5.72-13.2,9.6-3.45,3.88-5.94,8.09-7.48,12.65-1.54,4.56-2.31,8.86-2.31,12.92v55.02h22.15v-54.46c0-3.32.55-6.15,1.66-8.49,1.11-2.34,2.58-4.31,4.43-5.91,1.85-1.6,4-2.77,6.46-3.51,2.46-.74,5.05-1.11,7.75-1.11s5.29.37,7.75,1.11c2.46.74,4.62,1.91,6.46,3.51,1.85,1.6,3.32,3.57,4.43,5.91,1.11,2.34,1.66,5.17,1.66,8.49v54.46h22.15v-55.02c0-4.06-.77-8.37-2.31-12.92-1.54-4.55-4.03-8.77-7.48-12.65Z"/>
        <path class="cls-2" d="M507.16,638.58c-6.65,0-12.12-1.75-16.43-5.26-4.31-3.51-7.08-8.46-8.31-14.86h72.19c.12-1.23.21-2.43.28-3.6.06-1.17.09-2.43.09-3.78,0-7.14-1.14-13.63-3.42-19.48-2.28-5.84-5.51-10.83-9.69-14.96-4.19-4.12-9.2-7.32-15.05-9.6-5.85-2.28-12.34-3.42-19.48-3.42s-13.66,1.14-19.57,3.42c-5.91,2.28-10.96,5.48-15.14,9.6-4.19,4.13-7.42,9.11-9.69,14.96-2.28,5.85-3.42,12.34-3.42,19.48s1.14,13.66,3.42,19.57c2.28,5.91,5.51,10.96,9.69,15.14,4.18,4.19,9.23,7.42,15.14,9.69,5.91,2.28,12.43,3.42,19.57,3.42,11.2,0,20.71-2.71,28.53-8.12,7.81-5.41,13.26-12.8,16.34-22.15h-24.19c-4.56,6.65-11.51,9.97-20.86,9.97ZM492.95,587.62c3.94-2.46,8.68-3.69,14.22-3.69s10.31,1.23,14.31,3.69c4,2.46,6.98,5.97,8.95,10.52h-46.34c1.97-4.55,4.92-8.06,8.86-10.52Z"/>
        <path class="cls-2" d="M614.06,564.92l-18.09,27.32-18.09-27.32h-25.48l26.71,40.47c2.28,3.45,2.28,7.93,0,11.38l-26.71,40.46h25.48s18.09-27.32,18.09-27.32l18.09,27.32h25.48l-26.71-40.46c-2.28-3.45-2.28-7.93,0-11.38l26.71-40.47h-25.48Z"/>
        <path class="cls-2" d="M711.43,619.38c0,3.33-.56,6.16-1.66,8.5-1.11,2.34-2.59,4.31-4.43,5.91-1.85,1.6-4,2.77-6.46,3.51-2.47.74-5.05,1.11-7.76,1.11s-5.29-.37-7.75-1.11c-2.46-.74-4.62-1.91-6.46-3.51-1.85-1.6-3.32-3.57-4.43-5.91-1.11-2.34-1.66-5.17-1.66-8.5v-54.46h-22.15v55.02c0,4.06.77,8.37,2.31,12.92,1.54,4.56,4.03,8.77,7.48,12.65,3.45,3.88,7.85,7.08,13.2,9.6,5.35,2.52,11.84,3.78,19.48,3.78s14.12-1.26,19.48-3.78c5.36-2.52,9.75-5.72,13.2-9.6,3.44-3.88,5.94-8.09,7.48-12.65,1.54-4.55,2.3-8.86,2.3-12.92v-55.02h-22.15v54.46Z"/>
        <path class="cls-2" d="M802.73,606.73c-3.76-2.15-7.79-3.81-12.09-4.99-4.31-1.17-8.34-2.28-12.09-3.32-3.76-1.05-6.86-2.18-9.32-3.42-2.46-1.23-3.69-2.95-3.69-5.17,0-1.85.95-3.32,2.86-4.43,1.91-1.11,4.64-1.66,8.22-1.66,3.81,0,8.03.8,12.65,2.4,4.62,1.6,9.38,4.43,14.31,8.49l11.82-17.17c-1.97-1.72-4.25-3.42-6.83-5.08-2.58-1.66-5.45-3.14-8.59-4.43-3.14-1.29-6.62-2.37-10.43-3.23-3.82-.86-8-1.29-12.56-1.29-10.46,0-18.68,2.34-24.65,7.02-5.97,4.68-8.96,11.26-8.96,19.75,0,5.66,1.23,10.19,3.69,13.57,2.46,3.39,5.57,6.12,9.32,8.22,3.75,2.09,7.78,3.72,12.09,4.89,4.31,1.17,8.34,2.28,12.09,3.32,3.75,1.05,6.86,2.28,9.32,3.69,2.46,1.42,3.69,3.48,3.69,6.18s-1.26,4.71-3.79,6c-2.52,1.29-5.69,1.94-9.51,1.94-4.56,0-9.14-.92-13.76-2.77-4.61-1.85-8.89-4.62-12.83-8.31l-11.82,17.35c1.48,1.23,3.35,2.68,5.63,4.34,2.28,1.66,4.99,3.2,8.12,4.62,3.14,1.42,6.71,2.62,10.71,3.6,4,.98,8.46,1.48,13.38,1.48,5.29,0,10.12-.62,14.49-1.85,4.37-1.23,8.15-3.07,11.35-5.54,3.2-2.46,5.69-5.51,7.48-9.14,1.78-3.63,2.68-7.78,2.68-12.46,0-5.78-1.23-10.46-3.69-14.03-2.46-3.57-5.57-6.43-9.32-8.58Z"/>
      </g>
    </g>
    <path class="cls-1" d="M815.37,418.91c-1.59,32.71-2.89,34.01-35.6,35.6,32.71,1.59,34.01,2.89,35.6,35.6,1.59-32.71,2.89-34.01,35.6-35.6-32.71-1.59-34.01-2.89-35.6-35.6Z"/>
    <g>
      <path class="cls-1" d="M308.67,652.71c.82-2,1.78-4.22,2.88-6.63,1.1-2.42,2.24-4.84,3.44-7.29l.3-.6c.17-.35.39-.78.64-1.29.25-.51.51-1.07.78-1.66.27-.6.51-1.16.71-1.7.2-.54.34-1.01.43-1.42.09-.41.07-.68-.06-.8-.4-.4-.93-.24-1.61.49-.12.15-.44.45-.93.9-.5.45-1.11,1-1.83,1.66-.72.66-1.53,1.39-2.43,2.19-.9.8-1.82,1.62-2.76,2.47-.95.85-1.89,1.68-2.84,2.5-.95.82-1.82,1.58-2.62,2.28-.5.42-.98.84-1.46,1.25-.47.41-.91.79-1.31,1.14-.4.35-.74.64-1.01.88-.27.24-.46.41-.56.5-.55.52-.87.78-.95.77-.09-.01-.11-.36-.06-1.03.1-2.04.13-3.82.09-5.32-.04-1.51-.17-2.82-.41-3.94-.24-1.12-.57-2.08-.99-2.88-.42-.8-.96-1.51-1.61-2.13-.85-.85-1.64-1.1-2.39-.75-.32.12-.49.27-.49.45s.16.41.49.71c.15.15.25.24.32.28.06.04.07,0,.02-.09-.07-.17-.06-.27.06-.3.11-.02.22.06.32.26.05.1,0,.38-.13.84-.14.46-.34,1.04-.62,1.74-.27.7-.6,1.46-.99,2.3-.39.84-.8,1.68-1.25,2.52-.22.45-.48.95-.77,1.51-.29.56-.57,1.12-.86,1.68-.29.56-.56,1.1-.82,1.63-.26.52-.48.98-.65,1.38-.42.85-.87,1.74-1.35,2.69s-.93,1.85-1.38,2.71c-.45.86-.87,1.64-1.25,2.35-.39.71-.69,1.26-.92,1.66-.27.47-.44.8-.5.97-.06.17-.04.32.06.45.17.2.37.37.6.52.15.07.3.03.45-.13.15-.16.45-.58.9-1.25.27-.42.63-1.01,1.08-1.76s.94-1.58,1.48-2.5c.54-.92,1.1-1.91,1.7-2.97s1.18-2.11,1.76-3.16c1.39-2.54,2.51-4.84,3.34-6.89.83-2.05,1.34-3.7,1.51-4.95l.15-1.16.37.75c.15.22.29.6.43,1.12.14.52.26,1.11.37,1.76.11.65.21,1.33.3,2.04.09.71.14,1.38.17,2,.02.8.05,1.66.07,2.6.02.93.04,1.81.04,2.62s-.01,1.5-.04,2.07c-.03.57-.05.9-.07.97-.1.22-.12.41-.06.56.06.15.23.34.5.56l.49.37.22-.34c.05-.1.3-.34.75-.71.45-.37.96-.77,1.53-1.2.72-.55,1.37-1.06,1.94-1.53.57-.47,1.2-1.01,1.89-1.62.68-.61,1.48-1.35,2.39-2.2.91-.86,2.06-1.96,3.46-3.31.67-.62,1.3-1.22,1.89-1.78.59-.56,1.1-1.05,1.53-1.46.44-.41.9-.85,1.4-1.33,0,.02-.13.3-.39.82-.26.52-.57,1.15-.92,1.87-.55,1.05-1.13,2.27-1.74,3.68-.61,1.41-1.23,2.88-1.85,4.41-.62,1.53-1.22,3.06-1.79,4.6-.57,1.53-1.07,2.94-1.49,4.22-.42,1.28-.75,2.38-.99,3.29-.24.91-.33,1.51-.28,1.81-.03.1,0,.22.07.37.07.15.17.29.3.41.12.12.25.22.39.3.14.07.24.07.32,0,.12,0,.26-.15.39-.45.14-.3.18-.56.13-.79-.05-.3.16-1.13.63-2.5.47-1.37,1.12-3.06,1.94-5.06Z"/>
      <path class="cls-1" d="M325.02,653.74c.04-.32.06-.59.06-.79v-.67l2.06-1.05c1.35-.65,2.44-1.15,3.29-1.5.02,0,.03-.01.04-.02,0,.01-.02.02-.02.04-.34.54-.6,1.06-.78,1.57s-.27.94-.24,1.29c.03.4.17.74.43,1.03.26.29.55.43.88.43.17,0,.52-.17,1.05-.5.52-.34,1.12-.77,1.79-1.31.67-.54,1.39-1.15,2.15-1.83.76-.69,1.46-1.36,2.11-2.04.4-.42.72-.74.97-.95.25-.21.35-.27.3-.17-.1.25-.24.44-.41.56-.22.2-.48.57-.77,1.1-.29.54-.52,1.08-.69,1.62-.27.9-.37,1.7-.28,2.39.09.7.43,1.12,1.03,1.27.27.1.57.07.88-.07.31-.15.79-.49,1.44-1.01.65-.52,1.23-1.05,1.76-1.57.02-.02.03-.04.05-.05-.05.14-.11.28-.16.41-.2.54-.32.97-.37,1.29-.05.27.01.59.19.95.17.36.39.6.64.73.22.12.46.17.71.15.25-.02.54-.16.88-.39s.73-.59,1.2-1.05c.46-.46,1.01-1.07,1.66-1.81l1.83-2.09-.26,1.01c-.07.27-.14.59-.21.93-.06.35-.09.65-.09.9-.05.82.04,1.33.28,1.53.24.2.53.23.88.09.35-.14.7-.37,1.06-.71.36-.34.65-.63.88-.88,1.2-1.34,2.08-2.45,2.65-3.31.57-.86.8-1.44.67-1.74-.07-.15-.32.13-.75.82-.15.27-.45.69-.92,1.25s-.95,1.12-1.46,1.68c-.51.56-.98,1.06-1.4,1.5-.42.44-.67.65-.75.65-.3,0-.27-.62.07-1.87.2-.65.46-1.33.79-2.04.32-.71.81-1.6,1.46-2.67l.93-1.57-.41-.3c-.2-.15-.33-.22-.39-.22s-.16.07-.28.22c-.1.07-.26.27-.47.58-.21.31-.44.65-.69,1.03-.25.42-.6.91-1.05,1.46-.45.55-.94,1.12-1.48,1.7-.54.59-1.08,1.16-1.64,1.72s-1.08,1.05-1.55,1.48c-.47.42-.88.75-1.21.97s-.54.3-.62.22c-.05-.05,0-.28.17-.69.16-.41.39-.91.67-1.49.29-.59.6-1.23.93-1.92.34-.7.67-1.35,1.01-1.94.34-.6.64-1.11.9-1.53.26-.42.44-.67.54-.75.12-.07.13-.21.02-.39-.11-.19-.28-.34-.5-.47-.2-.12-.41-.07-.62.17-.21.24-.6.75-1.18,1.55-.35.52-.7,1.09-1.05,1.7-.21.36-.38.73-.57,1.09-.1.13-.2.28-.29.38-.27.3-.65.65-1.12,1.06-.47.41-.95.8-1.44,1.18-.49.37-.93.69-1.33.95-.4.26-.66.39-.78.39-.1,0-.09-.24.02-.71.11-.47.31-1.03.58-1.68.17-.42.43-.91.77-1.46.34-.55.72-1.11,1.14-1.68.3-.42.54-.76.71-1.01.17-.25.3-.44.37-.58.07-.14.11-.24.09-.3-.01-.06-.06-.13-.13-.21-.2-.2-.37-.29-.5-.28-.14.01-.37.14-.69.39l-.52.41-.45-.45c-.72-.8-1.64-1.12-2.76-.97s-2.35.77-3.7,1.87c-.5.4-.97.86-1.4,1.38-.21.25-.4.5-.59.75-.14.02-.27.04-.44.09-.87.24-2.24.8-4.11,1.7-.67.35-1.11.55-1.31.6-.2.05-.31.01-.34-.11-.02-.1-.11-.34-.24-.73-.14-.39-.29-.82-.47-1.29-.4-1-.61-1.75-.64-2.26-.02-.51.12-.9.45-1.18.07-.05.3-.16.69-.34.39-.17.79-.32,1.21-.43.42-.11.77-.13,1.05-.06.27.07.34.34.19.79-.17.5-.27.81-.28.93-.01.12.03.21.13.26.1.07.27-.03.5-.32.24-.29.38-.57.43-.84.05-.42-.07-.8-.37-1.12-.3-.32-.7-.54-1.2-.64-.22-.05-.5-.07-.84-.06-.34.01-.66.06-.97.13-.31.07-.6.17-.88.28s-.47.23-.6.36c-.27.27-.43.69-.47,1.23-.04.53.06,1.11.27,1.74-.12.14-.28.36-.47.69-.15.27-.45.69-.92,1.25s-.95,1.12-1.46,1.68c-.51.56-.98,1.06-1.4,1.5-.42.44-.67.65-.75.65-.3,0-.27-.62.07-1.87.2-.65.46-1.33.79-2.04.32-.71.81-1.6,1.46-2.67l.93-1.57-.41-.3c-.2-.15-.33-.22-.39-.22s-.16.07-.28.22c-.1.07-.26.27-.47.58-.21.31-.44.65-.69,1.03-.25.42-.6.91-1.05,1.46-.45.55-.94,1.12-1.48,1.7-.54.59-1.08,1.16-1.64,1.72s-1.08,1.05-1.55,1.48c-.47.42-.88.75-1.21.97s-.54.3-.62.22c-.05-.05,0-.28.17-.69.16-.41.39-.91.67-1.49.29-.59.6-1.23.93-1.92.34-.7.67-1.35,1.01-1.94.34-.6.64-1.11.9-1.53.26-.42.44-.67.54-.75.12-.07.13-.21.02-.39-.11-.19-.28-.34-.5-.47-.2-.12-.41-.07-.62.17-.21.24-.6.75-1.18,1.55-.35.52-.7,1.09-1.05,1.7-.35.61-.67,1.22-.95,1.83-.29.61-.53,1.18-.73,1.72-.2.54-.32.97-.37,1.29-.05.27.01.59.19.95.17.36.39.6.64.73.22.12.46.17.71.15.25-.02.54-.16.88-.39s.73-.59,1.2-1.05c.46-.46,1.01-1.07,1.66-1.81l1.83-2.09-.26,1.01c-.07.27-.14.59-.21.93-.06.35-.09.65-.09.9-.05.82.04,1.33.28,1.53.24.2.53.23.88.09.35-.14.7-.37,1.06-.71.36-.34.65-.63.88-.88,1.2-1.34,2.08-2.45,2.65-3.31.27-.41.46-.75.57-1.03.59,1.89.91,2.99.96,3.29.02.15-.06.3-.24.45-.19.15-.6.4-1.25.75-.52.27-1.03.56-1.53.86-.5.3-.96.6-1.38.9-.42.3-.79.58-1.1.84-.31.26-.54.48-.69.65-.42.57-.62,1.05-.58,1.44.04.39.22.69.54.92.32.22.75.37,1.29.43.54.06,1.08.03,1.63-.09,1.17-.25,2.14-.73,2.9-1.44.76-.71,1.23-1.58,1.4-2.6.05-.27.09-.57.13-.9ZM331.43,651.38c.3-.52.66-1.04,1.08-1.55.42-.51.87-.99,1.35-1.44.47-.45.96-.85,1.48-1.21.51-.36,1-.64,1.48-.84.17-.07.39-.14.64-.21.25-.06.49-.1.71-.11.22-.01.42,0,.58.02.16.02.24.07.24.15s-.12.24-.35.49c-.24.25-.55.55-.93.9s-.83.74-1.33,1.16c-.5.42-1,.84-1.49,1.25-.5.41-.99.8-1.48,1.16s-.9.65-1.25.88c-.85.55-1.3.79-1.36.73-.06-.06.16-.52.65-1.36ZM323.58,653.88c-.2.8-.63,1.5-1.29,2.11-.66.61-1.48,1.06-2.45,1.36-.1.05-.26.11-.47.17-.21.06-.41.11-.6.13-.19.02-.33.01-.43-.04-.1-.05-.09-.19.04-.41.07-.15.25-.36.52-.64.27-.27.6-.57.99-.88.39-.31.8-.63,1.25-.95.45-.32.88-.62,1.31-.9l1.35-.86-.22.9Z"/>
      <path class="cls-1" d="M354.45,640.94c-10.49-.25-25.93-.68-36.4-.07,10.4.89,25.7.05,36.4.07Z"/>
      <path class="cls-1" d="M280.96,656.94s0-.04.02-.06c.04-.05.07-.11.1-.16-5.41.04-10.58.07-15.39.07,4.74.05,9.88.1,15.27.15Z"/>
      <path class="cls-1" d="M307.38,657.13c2.99.01,5.98.02,8.95.03,0,0,0-.01,0-.02.05-.16.14-.31.24-.44.05-.07.09-.14.14-.21-3,0-6.02.02-9.03.04-.07.21-.17.41-.29.6Z"/>
      <path class="cls-1" d="M325.07,656.48s0,.02,0,.03c-.05.24-.17.46-.31.66,10.67-.01,20.89-.1,29.68-.31,0,0,0-.07,0-.07-8.77-.23-18.86-.31-29.37-.31Z"/>
      <path class="cls-1" d="M284.43,656.97c6.33.06,12.94.11,19.62.15.07-.21.19-.4.34-.57-6.77.04-13.48.09-19.91.14-.02.09-.03.19-.05.28Z"/>
    </g>
  </g>
</svg>